<svg id="b" xmlns="http://www.w3.org/2000/svg" width="323.924" height="275.512" viewBox="0 0 323.924 275.512" style="color: initial !important;"><defs><style>.n{fill:#c6c6c6;fill-rule:evenodd;}.n,.o,.p,.q,.r,.s{stroke-width:0px;}.o{fill:#7abee6;}.p{fill:#211715;}.q{fill:#f2635f;}.r{fill:#ffffff;}.s{fill:#ffda71;}</style></defs><g id="c"><path class="r" d="M15.062,218.745c3.063,1.14,6.554,1.93,10.302,2.272,17.617,1.608,36.281-.194,52.018-4.647,3.742-1.059,7.689-2.552,11.165-4.296,9.298-4.666,25.724-14.832,32.876-18.96.63-.363,1.36-.493,2.076-.368,5.804,1.014,13.658,2.579,21.201,4.094.486.098.989.014,1.418-.233l136.449-78.779c1.828-3.173,3.655-6.354,5.483-9.527l31.241-18.037c1.252-.723,2.806.243,2.703,1.685-.7,9.86-2.379,27.007-4.949,40.92-97.073,56.043-194.278,112.164-194.278,112.164-22.071,12.743-47.413,18.992-72.836,17.214-1.044-.073-2.085-.157-3.12-.251-11.652-1.063-19.747-7.081-23.624-12.739l-1.351-1.972c-7.921-13.82-15.732-30.74-18.784-39.201,1.192,4.469,5.692,8.31,12.011,10.661Z"/><path class="q" d="M315.219,141.47c.65-2.636,1.257-5.54,1.82-8.6l-.393.227-193.88,111.937c-22.071,12.743-47.413,18.992-72.836,17.214-1.044-.073-2.085-.157-3.12-.251-11.652-1.063-19.747-7.081-23.624-12.739l-1.462-2.134c.653,1.112,1.307,2.225,1.307,2.225,3.94,6.706,7.85,12.501,11.155,15.961,4.031,3.743,9.737,6.645,17.565,7.539,2.793.319,5.668.532,8.821.615,24.051.637,47.789-6.066,68.626-18.094,33.543-19.363,105.69-61.027,183.04-105.686.358-.207.638-.524.785-.911.778-2.049,1.51-4.527,2.195-7.302Z"/><path class="n" d="M288.049,108.301l31.241-18.037s.514-.297,1.028-.594l-.812-.469-68.293-39.429c-16.191,9.348-29.772,17.189-32.923,19.008l-7.306.696-145.64,84.096-1.289.744c-3.362-.66-6.618-1.287-9.414-1.79-1.459-.263-2.956-.006-4.24.736-7.344,4.24-22.612,13.055-30.842,17.806-6.554,3.783-11.914,9.452-14.893,16.409-2.868,6.696-3.451,13.841-1.618,20.6,1.765,6.639,10.831,11.893,22.315,12.94,17.617,1.608,36.281-.194,52.018-4.647,3.742-1.059,7.689-2.552,11.165-4.296,9.298-4.666,25.724-14.832,32.876-18.96.63-.363,1.36-.493,2.076-.368,5.804,1.014,13.658,2.579,21.201,4.094.486.098.989.014,1.418-.233l136.449-78.779"/><path class="p" d="M315.637,131.37c-2.413,1.393-4.827,2.787-7.24,4.18-6.4,3.695-12.799,7.39-19.199,11.084-9.184,5.302-18.368,10.605-27.552,15.907-10.809,6.241-21.618,12.481-32.427,18.722-11.147,6.436-22.294,12.871-33.441,19.307l-30.965,17.877c-8.32,4.804-16.641,9.607-24.961,14.411l-15.153,8.749c-8.373,4.834-16.981,9.131-26.164,12.243-10.892,3.691-22.262,5.942-33.751,6.532-5.734.294-11.478.174-17.197-.317-5.034-.432-9.938-1.786-14.319-4.339-3.24-1.888-6.204-4.385-8.355-7.478-1.46-2.099-4.929-.101-3.454,2.019,5.214,7.496,13.867,12.113,22.8,13.42,11.415,1.671,23.381,1.007,34.729-.837,16.081-2.613,31.464-8.397,45.551-16.53l11.505-6.642c7.524-4.344,15.047-8.688,22.571-13.031,9.923-5.729,19.846-11.458,29.77-17.188l33.474-19.326c11.116-6.418,22.232-12.836,33.349-19.254l29.494-17.028c7.282-4.205,14.565-8.409,21.847-12.614,3.547-2.048,7.133-4.043,10.647-6.147.152-.091.307-.177.46-.265,2.229-1.287.217-4.745-2.019-3.454h0Z"/><path class="p" d="M277.331,108.984c-4.392,2.536-8.784,5.071-13.176,7.607-10.506,6.066-21.013,12.132-31.519,18.198-12.702,7.334-25.404,14.667-38.106,22.001-10.978,6.338-21.957,12.677-32.935,19.015-5.326,3.075-10.781,5.999-16.008,9.242-.074.046-.15.087-.225.13-2.229,1.287-.217,4.745,2.019,3.454,4.392-2.536,8.784-5.071,13.176-7.607,10.506-6.066,21.013-12.132,31.519-18.198,12.702-7.334,25.404-14.667,38.106-22.001,10.978-6.338,21.957-12.677,32.935-19.015,5.326-3.075,10.781-5.999,16.008-9.242.074-.046.15-.087.225-.13,2.229-1.287.217-4.745-2.019-3.454h0Z"/><path class="p" d="M209.976,67.749c-4.866,2.81-9.731,5.619-14.597,8.429l-34.807,20.098c-14.016,8.093-28.032,16.186-42.048,24.28-12.107,6.991-24.214,13.982-36.321,20.972-5.865,3.386-11.867,6.61-17.625,10.177-.079.049-.162.094-.243.14-2.229,1.287-.217,4.745,2.019,3.454,4.866-2.81,9.731-5.619,14.597-8.429l34.807-20.098c14.016-8.093,28.032-16.186,42.048-24.28l36.321-20.972c5.865-3.386,11.867-6.61,17.625-10.177.079-.049.162-.094.243-.14,2.229-1.287.217-4.745-2.019-3.454h0Z"/><g id="d"><path class="p" d="M74.419,158.29c7.792,4.499,15.585,8.998,23.377,13.497,12.33,7.119,24.661,14.238,36.991,21.357,2.837,1.638,5.674,3.276,8.511,4.914,2.233,1.289,4.25-2.166,2.019-3.454-7.792-4.499-15.585-8.998-23.377-13.497-12.33-7.119-24.661-14.238-36.991-21.357-2.837-1.638-5.674-3.276-8.511-4.914-2.233-1.289-4.25,2.166-2.019,3.454h0Z"/></g><g id="e"><path class="p" d="M289.059,110.028c10.185-5.88,20.37-11.76,30.555-17.641.187-.108.375-.242.573-.331.028-.012.076-.059.106-.061-.445.038-.282.013-.342.567-.241,2.204-.344,4.431-.541,6.639-.497,5.572-1.088,11.136-1.787,16.686-1.312,10.419-2.654,21.26-6.117,31.225-.251.723-.181.782-.828,1.163-.731.43-1.468.848-2.203,1.272-1.922,1.11-3.845,2.22-5.767,3.33-3.548,2.048-7.096,4.097-10.644,6.145-6.81,3.932-13.619,7.863-20.429,11.795-13.28,7.668-26.56,15.335-39.839,23.003-22.595,13.047-45.19,26.094-67.785,39.14-8.51,4.914-17.02,9.827-25.531,14.741-9.683,5.59-19.273,11.241-29.753,15.254-13.648,5.226-28.135,8.252-42.761,8.527-7.092.133-14.674.064-21.441-2.295-4.792-1.67-8.61-4.558-11.687-8.537-6.219-8.043-11.079-17.248-15.701-26.268-4.324-8.44-8.511-17.055-11.828-25.949-2.398-6.43-1.481-14.247,1.29-20.408,2.649-5.889,7.702-10.152,12.906-13.745,5.133-3.544,10.496-6.763,15.853-9.953,2.79-1.662,5.593-3.303,8.402-4.932,2.555-1.481,5.089-3.168,7.751-4.448,1.565-.752,3.054-.414,4.677-.112,1.719.32,3.436.649,5.152.983,3.469.674,6.936,1.366,10.403,2.052,1.542.305,3.413,1.084,4.881.314,1.275-.669,2.504-1.446,3.751-2.166l7.635-4.408c11.069-6.391,22.139-12.782,33.208-19.173,23.049-13.308,46.099-26.615,69.148-39.923,4.886-2.821,9.771-5.641,14.657-8.462,2.229-1.287.217-4.745-2.019-3.454-16.399,9.468-32.798,18.936-49.197,28.404-17.596,10.159-35.191,20.318-52.787,30.476l-26.601,15.358,1.541-.202c-5.907-1.16-11.806-2.358-17.722-3.472-2.739-.515-5.353-1.135-8.03.002-2.21.939-4.284,2.358-6.363,3.558-9.326,5.383-18.829,10.704-27.599,16.973-4.377,3.129-8.522,6.686-11.444,11.26C1.622,187.932.04,194.102,0,199.978c-.056,8.451,4.026,16.207,7.489,23.709,3.915,8.479,8.145,16.83,12.802,24.927,2.09,3.633,4.27,7.222,6.646,10.676,1.976,2.872,4.065,5.975,6.747,8.24,8.869,7.491,20.885,8.138,31.996,7.958,12.224-.198,24.432-2.247,36.096-5.891,10.859-3.393,21.053-8.242,30.887-13.919,6.319-3.648,12.639-7.296,18.958-10.945,17.138-9.895,34.276-19.791,51.414-29.687,21.336-12.32,42.671-24.639,64.007-36.959,11.739-6.778,23.478-13.556,35.218-20.334,2.927-1.69,5.854-3.38,8.782-5.07,1.214-.701,2.736-1.312,3.52-2.541.475-.746.721-1.72,1-2.557,1.303-3.913,2.2-7.963,2.996-12.005,1.887-9.589,3.119-19.315,4.137-29.031.438-4.175.824-8.356,1.146-12.541.169-2.2.307-4.47-2.019-5.606-1.258-.614-2.554-.379-3.742.251-4.117,2.182-8.099,4.676-12.134,7.005l-16.002,9.239-2.904,1.677c-2.229,1.287-.217,4.745,2.019,3.454h0Z"/></g><g id="f"><path class="p" d="M13.981,194.465c5.613-11.24,17.533-16.658,27.984-22.411,2.256-1.242.24-4.697-2.019-3.454-11.059,6.089-23.486,11.966-29.419,23.846-1.147,2.296,2.303,4.325,3.454,2.019h0Z"/></g><path class="p" d="M123.403,190.832c-7.84-4.527-15.681-9.053-23.521-13.58-12.445-7.185-24.89-14.37-37.335-21.555-2.851-1.646-5.702-3.292-8.553-4.938-2.233-1.289-4.25,2.166-2.019,3.454,7.84,4.527,15.681,9.053,23.521,13.58,12.445,7.185,24.89,14.37,37.335,21.555,2.851,1.646,5.702,3.292,8.553,4.938,2.233,1.289,4.25-2.166,2.019-3.454h0Z"/><path class="p" d="M274.515,111.776c-9.006-5.205-18.013-10.406-27.021-15.607-8.958-5.173-17.917-10.346-26.876-15.517-2.291-1.322-4.581-2.646-6.873-3.966l.718,2.736c1.851-3.211,3.705-6.421,5.56-9.63l-.718.718c10.972-6.339,21.947-12.673,32.92-19.01h-2.019c7.696,4.444,15.392,8.887,23.088,13.331,12.261,7.079,24.522,14.159,36.782,21.238,2.807,1.621,5.613,3.241,8.42,4.862,2.233,1.29,4.25-2.166,2.019-3.454-7.696-4.444-15.392-8.887-23.088-13.331-12.261-7.079-24.522-14.159-36.782-21.238-2.807-1.621-5.613-3.241-8.42-4.862-.623-.36-1.396-.36-2.019,0-10.795,6.234-21.592,12.466-32.386,18.702-1.53.884-2.204,2.673-3.064,4.162-1.25,2.164-2.5,4.329-3.748,6.494-.537.931-.225,2.194.718,2.736,5.731,3.301,11.457,6.612,17.185,9.919,9.874,5.701,19.748,11.402,29.621,17.104,4.655,2.688,9.309,5.377,13.964,8.067,2.233,1.29,4.249-2.165,2.019-3.454h0Z"/><g id="g"><path class="p" d="M289.059,106.574c-7.148-4.127-14.296-8.254-21.444-12.381-11.375-6.567-22.75-13.135-34.126-19.702-2.587-1.494-5.174-2.987-7.761-4.481-2.233-1.289-4.25,2.166-2.019,3.454,7.148,4.127,14.296,8.254,21.444,12.381,11.375,6.567,22.75,13.135,34.126,19.702,2.587,1.494,5.174,2.987,7.761,4.481,2.233,1.289,4.25-2.166,2.019-3.454h0Z"/></g><path class="p" d="M281.557,116.101c-2.314,1.336-4.627,2.671-6.941,4.007l-17.926,10.35c-8.256,4.766-16.511,9.533-24.767,14.299-9.195,5.308-18.389,10.617-27.584,15.925l-26.001,15.011c-6.797,3.924-13.593,7.848-20.39,11.772l-10.654,6.151c-.21.121-.418.251-.632.365-1.419.757-2.707.672-4.239.366-2.473-.495-4.946-.987-7.42-1.472-2.384-.467-4.769-.926-7.157-1.37-2.282-.423-4.557-.965-6.839-.218-2.868.939-5.571,3.086-8.143,4.633-15.234,9.159-31.155,17.644-48.722,21.213-9.486,1.927-19.207,2.647-28.877,2.439-8.537-.184-17.769-.583-25.084-5.526-2.312-1.562-4.393-3.702-5.185-6.434-.716-2.468-4.577-1.418-3.857,1.063,2.034,7.015,9.412,10.953,15.952,12.839,4.497,1.298,9.187,1.658,13.841,1.899,4.931.256,9.876.258,14.807.002,9.577-.497,19.18-1.914,28.388-4.632,9.13-2.695,17.868-6.72,26.268-11.161,6.648-3.515,13.074-7.406,19.513-11.284,1.778-1.071,3.168-1.652,5.29-1.266,2.233.406,4.463.83,6.691,1.262,2.624.508,5.245,1.027,7.865,1.55,2.368.473,4.71,1.101,7.097.353,1.229-.385,2.319-1.082,3.425-1.721l5.045-2.912c6.006-3.468,12.012-6.935,18.018-10.403l25.077-14.478c9.275-5.355,18.55-10.71,27.826-16.065,8.755-5.055,17.51-10.11,26.265-15.164l20.395-11.775c3.404-1.965,6.843-3.881,10.216-5.898.151-.091.306-.177.459-.265,2.229-1.287.217-4.745-2.019-3.454h0Z"/><path class="p" d="M286.322,107.291c-1.829,3.175-3.654,6.352-5.483,9.527-.522.907-.242,2.23.718,2.736.954.504,2.179.251,2.736-.718,1.829-3.175,3.654-6.352,5.483-9.527.522-.907.242-2.23-.718-2.736-.954-.504-2.179-.251-2.736.718h0Z"/><path class="r" d="M241.776,40.738v32.352c0,.678.357,1.301.945,1.639,6.648,3.823,29.113,16.739,33.998,19.549.586.337,1.301.333,1.886-.005l24.71-14.266c.586-.338.947-.963.947-1.64,0-5.726,0-31.989,0-31.989,0-.66-.347-1.267-.919-1.596-7.179-4.141-27.282-15.672-34.453-19.813-.568-.328-1.258-.329-1.826,0-3.868,2.232-18.848,10.886-24.369,14.074-.57.329-.919.936-.919,1.594v.101Z"/><path class="p" d="M241.524,41.733c5.812,3.343,11.624,6.687,17.436,10.03l12.124,6.974c1.968,1.132,3.909,2.401,5.94,3.417.919.46,1.599.232,2.458-.229,1.207-.647,2.378-1.373,3.564-2.058,2.396-1.384,4.792-2.769,7.188-4.153,4.927-2.847,9.856-5.692,14.788-8.53,2.231-1.283.219-4.741-2.019-3.454-8.66,4.982-17.306,9.988-25.958,14.982h2.019c-10.379-5.971-20.759-11.941-31.138-17.912-1.461-.841-2.922-1.681-4.383-2.522-2.235-1.286-4.252,2.169-2.019,3.454h0Z"/><path class="p" d="M276.054,61.096c0,10.884,0,21.767,0,32.651,0,2.574,4,2.578,4,0,0-10.884,0-21.767,0-32.651,0-2.574-4-2.578-4,0h0Z"/><path class="p" d="M301.65,52.958c-8.203,4.734-16.402,9.477-24.606,14.21-.609.352-.991,1.025-.991,1.727,0,.375,0,.749,0,1.124,0,2.574,4,2.578,4,0,0-.375,0-.749,0-1.124l-.991,1.727c8.204-4.733,16.403-9.476,24.606-14.21,2.229-1.286.217-4.744-2.019-3.454h0Z"/><path class="p" d="M241.524,50.424c10.578,6.107,21.155,12.214,31.733,18.321l3.787,2.186c2.233,1.289,4.25-2.166,2.019-3.454-8.945-5.164-17.89-10.329-26.834-15.493l-8.686-5.015c-2.233-1.289-4.25,2.166-2.019,3.454h0Z"/><path class="p" d="M239.776,40.738v27.062c0,1.752-.088,3.53,0,5.28.121,2.401,1.893,3.352,3.735,4.411,1.64.943,3.28,1.886,4.919,2.829,4.188,2.408,8.376,4.816,12.564,7.224,3.778,2.172,7.556,4.344,11.334,6.517,1.122.645,2.229,1.355,3.381,1.944,1.552.793,3.02.506,4.436-.311,5.687-3.283,11.373-6.566,17.06-9.849,2.239-1.293,4.491-2.564,6.717-3.878,1.413-.834,2.27-2.007,2.34-3.71.054-1.316,0-2.647,0-3.964,0-8.065,0-16.129,0-24.194,0-2.596.514-5.54-2.065-7.133-3.601-2.224-7.354-4.232-11.023-6.34-4.585-2.635-9.171-5.269-13.756-7.904-1.983-1.14-3.966-2.28-5.949-3.421-1.627-.936-3.727-2.675-5.681-2.567-1.745.096-3.572,1.57-5.052,2.424-2,1.155-4,2.31-6,3.465-4.264,2.463-8.529,4.926-12.793,7.39-1.944,1.123-4.167,2.109-4.167,4.726,0,2.574,4,2.578,4,0,0-.113.043-.108-.027-.012-.122.165.268-.139.284-.146.314-.136.611-.353.908-.525.87-.503,1.74-1.005,2.61-1.508,2.038-1.177,4.076-2.355,6.114-3.532,3.969-2.293,7.938-4.585,11.908-6.877.622-.359,1.244-.719,1.867-1.078.154-.089.455-.338.633-.365-.374.057-.047.052.122.183.199.154.458.264.676.39,1.592.918,3.185,1.835,4.778,2.751,4.207,2.42,8.415,4.837,12.623,7.254,4.09,2.35,8.18,4.699,12.268,7.051.752.432,1.503.865,2.255,1.298.297.171.594.342.891.514.169.097.694.535.574.245.164.397,0,1.237,0,1.651,0,7.347,0,14.693,0,22.04,0,1.743,0,3.486,0,5.228,0,.632,0,1.265,0,1.897,0,.232-.005.464,0,.696.003.133-.071.547.041.388-.215.305-.997.576-1.307.754l-3.133,1.809c-5.918,3.417-11.836,6.833-17.753,10.25-.741.428-1.473.877-2.225,1.284-.076.041-.204.157-.29.168.246-.029-.139-.141-.277-.231-.28-.183-.584-.336-.874-.503-3.076-1.769-6.152-3.537-9.228-5.306-7.448-4.282-14.895-8.565-22.343-12.847-.246-.141-.49-.298-.742-.427-.094-.048-.457-.356-.355-.145-.042-.086-.005-.318,0-.41.045-.774,0-1.565,0-2.34v-29.6c0-2.574-4-2.578-4,0Z"/><path class="o" d="M284.951,73.049c0,1.999,0,4.461,0,6.141,0,.866.938,1.403,1.688.97l6.37-3.678c.348-.201.563-.571.563-.973,0-1.215,0-3.786,0-6.134,0-.866-.938-1.406-1.688-.973l-6.37,3.678c-.348.201-.563.567-.563.969Z"/><path class="p" d="M282.951,73.049c0,2.043-.07,4.099,0,6.141.085,2.48,2.659,3.818,4.785,2.647,1.769-.974,3.5-2.021,5.249-3.03,1.027-.593,2.035-1.116,2.434-2.354.279-.867.153-1.92.153-2.822,0-1.059,0-2.118,0-3.177,0-.629.046-1.284-.109-1.9-.185-.738-.675-1.33-1.28-1.763-.984-.703-2.281-.662-3.317-.109-.624.333-1.229.71-1.842,1.064l-3.407,1.967c-.337.194-.679.382-1.011.584-1.033.626-1.563,1.56-1.654,2.754-.079,1.046.977,2.046,2,2,1.152-.052,1.915-.88,2-2-.018.242-.285.717-.402.743.063-.014.139-.08.195-.112l.813-.469,2.557-1.476,2.289-1.321c.077-.044.441-.186.477-.275-.098.243-.758.057-.939-.04.259.14-.165-.145-.237-.261-.026-.042-.096-.425-.132-.461.041.04,0,.365,0,.429,0,1.735,0,3.47,0,5.206,0,.141-.022.304,0,.442.026.163.009-.113.021-.141.04-.097.332-.433.337-.504.003-.054.121-.067-.017,0-.225.108-.439.253-.655.378l-4.885,2.821c-.22.127-.492.238-.69.399-.091.074.4-.09.543-.069.066.01.5.22.3.099-.14-.084.179.153.219.202.075.092.141.197.174.314.042.147.022.348.034.081.088-1.985,0-3.994,0-5.981,0-1.046-.92-2.048-2-2s-2,.879-2,2Z"/><g id="h"><path class="r" d="M197.038,96.477c1.529-.884,4.044-2.336,5.602-3.236.857-.495,1.911-.494,2.768,0l4.96,2.864c.857.495,1.384,1.405,1.385,2.394.001,5.669.002,14.829.002,18.427,0,.941-.499,1.809-1.314,2.28-1.814,1.047-3.637,2.1-5.465,3.155-.857.495-1.914.495-2.771,0l-5.167-2.983c-.815-.471-1.317-1.334-1.317-2.275,0-3.931,0-14.427.002-18.355,0-.941.501-1.802,1.315-2.273Z"/></g><path class="p" d="M191.129,9.708c-7.969,7.728-16.134,15.27-24.363,22.72-1.912,1.731.923,4.553,2.828,2.828,8.229-7.45,16.394-14.991,24.363-22.72,1.851-1.795-.979-4.622-2.828-2.828h0Z"/><g id="i"><path class="p" d="M198.047,98.204c1.265-.731,2.531-1.462,3.797-2.193.768-.443,1.763-1.359,2.658-.982,1.45.611,2.836,1.637,4.198,2.424.381.22.88.409,1.029.858.168.51.025,1.282.025,1.816,0,.707,0,1.415,0,2.122,0,2.994,0,5.988,0,8.983,0,1.174,0,2.349,0,3.523,0,.8.285,2.135-.323,2.726-.5.487-1.49.86-2.097,1.211-.842.486-1.683.972-2.525,1.458-.846.489-1.176.703-1.978.267-1.483-.807-2.955-1.669-4.401-2.541-.457-.275-.658-.385-.71-.961-.095-1.066,0-2.187,0-3.257,0-2.872,0-5.744,0-8.616,0-1.325,0-2.65,0-3.975,0-.69-.333-2.42.326-2.86,2.129-1.424.129-4.891-2.019-3.454-2.854,1.909-2.307,5.203-2.307,8.202,0,3.16,0,6.321,0,9.481,0,2.662-.638,6.23,1.612,8.166,1.428,1.229,3.35,2.039,4.971,2.976.85.491,1.664.968,2.662,1.099,2.237.295,4.132-1.228,5.967-2.288,1.76-1.016,3.819-1.858,4.549-3.917.44-1.24.272-2.704.272-4.003,0-3.389,0-6.778,0-10.167,0-3.344.899-7.832-2.376-9.922-1.563-.997-3.223-1.929-4.857-2.804-1.8-.964-3.555-.812-5.301.177s-3.462,1.999-5.192,2.999c-2.228,1.288-.216,4.746,2.019,3.454Z"/></g><g id="j"><path class="r" d="M202.422,99.745l-2.509-1.448c-.857-.495-1.385-1.405-1.385-2.394,0-14.133,0-83.738,0-90.121,0-.989.526-1.897,1.383-2.391l1.579-.912c1.082-.625,2.135-.623,2.992-.129l2.509,1.448c.857.495,1.385,1.409,1.385,2.398v90.112c0,.989-.528,1.904-1.385,2.398l-1.8,1.039c-.857.495-1.913.495-2.769,0Z"/></g><g id="k"><path class="p" d="M203.431,98.018c-1.043-.602-2.876-1.129-2.903-2.482-.023-1.111,0-2.225,0-3.336,0-3.188,0-6.376,0-9.564,0-8.934,0-17.868,0-26.802,0-9.361,0-18.722,0-28.083,0-6.445,0-12.889,0-19.334,0-.743-.013-1.488,0-2.231.008-.469.021-.768.429-1.09.459-.362,1.601-1.133,2.215-1.098.668.038,1.503.772,2.063,1.096.512.296,1.027.473,1.141,1.106.038.209,0,.46,0,.671v12.343c0,7.413,0,14.826,0,22.239v25.018c0,6.912,0,13.823,0,20.735v6.405c0,.851.135,1.83,0,2.674-.128.798-2.159,2.11-2.944,1.733-2.31-1.11-4.341,2.338-2.019,3.454,1.692.813,3.319.795,4.967-.103.834-.454,1.768-.922,2.467-1.573,1.069-.996,1.505-2.326,1.529-3.749.022-1.309,0-2.621,0-3.931,0-6.144,0-12.289,0-18.433,0-8.517,0-17.034,0-25.551v-24.693c0-5.158,0-10.317,0-15.475,0-1.743.09-3.411-1.156-4.864-.698-.814-1.665-1.286-2.578-1.812-1.016-.587-1.986-1.2-3.198-1.279-2.455-.158-5.951,1.98-6.691,4.35-.574,1.837-.225,4.253-.225,6.154,0,3.243,0,6.486,0,9.728,0,9.232,0,18.464,0,27.695,0,9.771,0,19.542,0,29.313,0,3.863,0,7.725,0,11.588,0,1.44,0,2.88,0,4.32,0,1.394-.19,3.018.284,4.34.746,2.082,2.822,2.949,4.6,3.976,2.233,1.289,4.25-2.166,2.019-3.454Z"/></g><g id="l"><path class="r" d="M202.067,28.768l-36.96,21.339c-.857.495-1.913.495-2.769,0l-2.509-1.448c-.857-.495-1.385-1.409-1.385-2.398v-2.079c0-.989.528-1.904,1.385-2.398l36.96-21.339c.857-.495,1.913-.495,2.769,0l2.509,1.448c.857.495,1.385,1.409,1.385,2.398v2.079c0,.989-.528,1.904-1.385,2.398Z"/></g><g id="m"><path class="p" d="M201.058,27.041c-5.335,3.08-10.671,6.161-16.006,9.241l-20.083,11.595c-.611.353-1.042.75-1.757.424-.757-.345-1.703-.835-2.351-1.357-.653-.527-.455-1.715-.416-2.482.042-.852.511-1.02,1.16-1.395l3.023-1.745,22.944-13.247,8.744-5.048c.46-.266.973-.683,1.479-.854.765-.258,1.575.471,2.217.842.705.407,1.367.604,1.44,1.482.055.664.252,2.111-.394,2.543-2.129,1.425-.128,4.891,2.019,3.454,1.65-1.104,2.36-2.641,2.375-4.595.012-1.446.062-2.872-.744-4.153-.756-1.202-2.011-1.801-3.196-2.485-1.394-.805-2.815-1.475-4.481-1.05-.907.231-1.713.771-2.515,1.234l-3.84,2.217c-8.318,4.802-16.636,9.605-24.953,14.407-2.262,1.306-4.577,2.551-6.799,3.925-2.322,1.437-2.575,3.745-2.48,6.23.115,3.007,2.509,4.371,4.884,5.609,3.171,1.653,6.057-.732,8.715-2.267l11.758-6.789c6.959-4.018,13.997-7.925,20.887-12.059.128-.077.258-.149.387-.224,2.229-1.287.217-4.745-2.019-3.454Z"/></g><path class="p" d="M166.412,72.063v-13.964c0-1.081-.919-2-2-2s-2,.915-2,2v13.964c0,1.081.919,2,2,2s2-.915,2-2h0Z"/><path class="s" d="M172.621,120.973v19.519c-8.92,5.16-17.773,10.266-26.546,15.333h-.013v-19.746h.013c8.693-5.027,17.479-10.106,26.346-15.226l.2.12Z"/><path class="q" d="M198.447,105.707c.467.28.733.427.733.427v19.013c-8.906,5.147-17.759,10.266-26.559,15.346v-19.746c8.44-4.88,16.933-9.786,25.479-14.706h.013l.333-.333Z"/><path class="s" d="M199.181,125.147v19.533c-8.906,5.133-17.759,10.253-26.559,15.346v-19.533c8.8-5.08,17.653-10.2,26.559-15.346Z"/><path class="q" d="M172.621,140.493v19.533c-8.92,5.147-17.773,10.266-26.546,15.32l-.013-.013v-19.506h.013c8.773-5.067,17.626-10.173,26.546-15.333Z"/><path class="q" d="M146.062,155.826v19.506l-21.053-12.16-21.066-12.146v-19.519l15.8,9.12,26.319,15.186v.013Z"/><path class="s" d="M103.943,111.76l42.119,24.319v19.733l-26.319-15.186-15.8-9.12v-19.746Z"/><path class="s" d="M145.249,105.161l27.173,15.693c-8.866,5.12-17.653,10.2-26.346,15.226h-.013l-42.119-24.319v-.613c8.52-4.907,17.146-9.893,25.826-14.92l15.48,8.933Z"/><path class="q" d="M155.955,81.188c.68.387,36.826,21.266,42.492,24.519l-.333.333h-.013c-8.546,4.92-17.039,9.826-25.479,14.706-.067.04-.133.08-.2.107l-27.173-15.693-15.48-8.933c8.626-4.973,17.333-10,26.079-15.04h.107Z"/><path class="p" d="M104.956,112.878c17.304-9.983,34.592-19.992,51.902-29.964l-1.009.273h.106l-1.009-.273c4.976,2.851,9.935,5.733,14.902,8.601,7.678,4.432,15.355,8.865,23.034,13.296,1.762,1.017,3.508,2.074,5.292,3.053l-.991-1.727v38.539l.991-1.727c-17.71,10.212-35.397,20.463-53.114,30.663h2.019c-4.749-2.741-9.498-5.483-14.248-8.224-7.563-4.366-15.127-8.732-22.69-13.098-1.728-.997-3.455-1.995-5.183-2.992l.991,1.727c0-11.914,0-23.828-.001-35.743,0-1.377.004-2.754,0-4.131-.008-2.573-4.008-2.578-4,0,.032,10.507.001,21.014.002,31.521,0,2.784,0,5.569,0,8.353,0,.702.381,1.375.991,1.727,8.349,4.816,16.695,9.637,25.042,14.455,4.776,2.757,9.553,5.514,14.329,8.272.901.52,1.789,1.103,2.72,1.57.908.456,1.621.23,2.467-.223,1.56-.835,3.075-1.771,4.608-2.654,2.876-1.658,5.751-3.317,8.626-4.976,13.156-7.594,26.303-15.203,39.462-22.792.609-.351.991-1.025.991-1.727v-38.539c0-.69-.378-1.391-.991-1.727-8.478-4.65-16.769-9.678-25.143-14.512-4.925-2.843-9.849-5.686-14.774-8.528-1.059-.611-2.104-1.276-3.189-1.84-.39-.203-.788-.352-1.237-.343-.839.018-1.605.616-2.304,1.019-.862.497-1.725.994-2.587,1.491-2.868,1.653-5.735,3.307-8.603,4.962-13.141,7.585-26.275,15.182-39.418,22.765-2.229,1.286-.217,4.744,2.019,3.454Z"/><path class="p" d="M144.069,137.55v34.725c0,2.574,4,2.578,4,0v-34.725c0-2.574-4-2.578-4,0h0Z"/><path class="p" d="M147.078,134.355c-4.749-2.742-9.498-5.485-14.247-8.227-7.563-4.368-15.127-8.735-22.69-13.103l-5.183-2.993c-2.233-1.29-4.25,2.166-2.019,3.454,4.749,2.742,9.498,5.485,14.247,8.227,7.563,4.368,15.127,8.735,22.69,13.103,1.728.998,3.456,1.995,5.183,2.993,2.233,1.29,4.25-2.166,2.019-3.454h0Z"/><path class="p" d="M102.939,133.239c6.155,3.551,12.31,7.102,18.465,10.653,5.022,2.897,10.041,5.798,15.061,8.697,2.865,1.655,5.73,3.309,8.595,4.964,2.233,1.29,4.25-2.165,2.019-3.454-6.158-3.556-12.315-7.113-18.473-10.669-5.018-2.898-10.038-5.793-15.057-8.689-2.864-1.652-5.727-3.304-8.591-4.956-2.234-1.289-4.25,2.166-2.019,3.454h0Z"/><path class="p" d="M129.496,98.387c6.155,3.551,12.31,7.102,18.465,10.653,5.022,2.897,10.041,5.798,15.061,8.697l8.595,4.964c2.233,1.29,4.25-2.165,2.019-3.454-6.158-3.556-12.315-7.113-18.473-10.669-5.018-2.898-10.038-5.793-15.057-8.689-2.864-1.652-5.727-3.304-8.591-4.956-2.234-1.289-4.25,2.166-2.019,3.454h0Z"/><path class="p" d="M170.626,122.369v34.725c0,2.574,4,2.578,4,0v-34.725c0-2.574-4-2.578-4,0h0Z"/><path class="p" d="M147.078,137.81c17.346-10.008,34.678-20.042,52.026-30.046l-1.009.273h.018c2.574,0,2.578-4,0-4-1.103,0-2.267.988-3.188,1.519-1.151.664-2.302,1.328-3.453,1.992-2.154,1.243-4.308,2.487-6.462,3.73-4.502,2.599-9.002,5.2-13.503,7.801-8.815,5.094-17.629,10.188-26.447,15.276-2.229,1.286-.217,4.744,2.019,3.454h0Z"/><path class="p" d="M147.078,157.553c17.346-10.008,34.678-20.042,52.026-30.046l-1.009.273h.018c2.574,0,2.578-4,0-4-1.103,0-2.267.988-3.188,1.519-1.151.664-2.302,1.328-3.453,1.992-2.154,1.243-4.308,2.487-6.462,3.73-4.502,2.599-9.002,5.2-13.503,7.801-8.815,5.094-17.629,10.188-26.447,15.276-2.229,1.286-.217,4.744,2.019,3.454h0Z"/></g></svg>